<mxfile host="app.diagrams.net" modified="2022-04-04T06:14:24.113Z" agent="5.0 (Windows NT 10.0; Win64; x64) AppleWebKit/537.36 (KHTML, like Gecko) Chrome/100.0.4896.60 Safari/537.36" etag="aH60xbVSWopgbOdjEKFt" version="17.4.0" type="github" pages="6">
  <diagram id="5eBOPWXIhYEufeksKNHc" name="Modulo Registro">
    <mxGraphModel dx="2523" dy="2049" grid="1" gridSize="10" guides="1" tooltips="1" connect="1" arrows="1" fold="1" page="1" pageScale="1" pageWidth="850" pageHeight="1100" math="0" shadow="0">
      <root>
        <mxCell id="0" />
        <mxCell id="1" parent="0" />
        <mxCell id="uDYenzzOM_alLlbksWme-1" value="" style="whiteSpace=wrap;html=1;aspect=fixed;" parent="1" vertex="1">
          <mxGeometry x="-350" y="-110" width="510" height="510" as="geometry" />
        </mxCell>
        <mxCell id="uDYenzzOM_alLlbksWme-4" style="edgeStyle=orthogonalEdgeStyle;rounded=0;orthogonalLoop=1;jettySize=auto;html=1;exitX=1;exitY=0.3333333333333333;exitDx=0;exitDy=0;exitPerimeter=0;" parent="1" source="ps1h4QxULYfLVLRuHkIJ-1" target="8Nh4FNoyNVWKhMdbQ_Sm-1" edge="1">
          <mxGeometry relative="1" as="geometry" />
        </mxCell>
        <mxCell id="ps1h4QxULYfLVLRuHkIJ-1" value="Egresado" style="shape=umlActor;verticalLabelPosition=bottom;verticalAlign=top;html=1;outlineConnect=0;" parent="1" vertex="1">
          <mxGeometry x="-500" y="-90" width="30" height="60" as="geometry" />
        </mxCell>
        <mxCell id="uDYenzzOM_alLlbksWme-5" style="edgeStyle=orthogonalEdgeStyle;rounded=0;orthogonalLoop=1;jettySize=auto;html=1;entryX=0;entryY=0.5;entryDx=0;entryDy=0;" parent="1" source="ps1h4QxULYfLVLRuHkIJ-17" target="8Nh4FNoyNVWKhMdbQ_Sm-1" edge="1">
          <mxGeometry relative="1" as="geometry" />
        </mxCell>
        <mxCell id="ps1h4QxULYfLVLRuHkIJ-17" value="Reclutador y recursos humanos" style="shape=umlActor;verticalLabelPosition=bottom;verticalAlign=top;html=1;outlineConnect=0;" parent="1" vertex="1">
          <mxGeometry x="-500" y="30" width="30" height="60" as="geometry" />
        </mxCell>
        <mxCell id="uDYenzzOM_alLlbksWme-8" style="edgeStyle=orthogonalEdgeStyle;rounded=0;orthogonalLoop=1;jettySize=auto;html=1;" parent="1" source="ps1h4QxULYfLVLRuHkIJ-33" target="ps1h4QxULYfLVLRuHkIJ-35" edge="1">
          <mxGeometry relative="1" as="geometry" />
        </mxCell>
        <mxCell id="uDYenzzOM_alLlbksWme-9" style="edgeStyle=orthogonalEdgeStyle;rounded=0;orthogonalLoop=1;jettySize=auto;html=1;exitX=0;exitY=1;exitDx=0;exitDy=0;exitPerimeter=0;entryX=1;entryY=0.5;entryDx=0;entryDy=0;" parent="1" source="ps1h4QxULYfLVLRuHkIJ-33" target="uDYenzzOM_alLlbksWme-6" edge="1">
          <mxGeometry relative="1" as="geometry" />
        </mxCell>
        <mxCell id="ps1h4QxULYfLVLRuHkIJ-33" value="Sys Admin" style="shape=umlActor;verticalLabelPosition=bottom;verticalAlign=top;html=1;outlineConnect=0;" parent="1" vertex="1">
          <mxGeometry x="310" y="130" width="30" height="60" as="geometry" />
        </mxCell>
        <mxCell id="ps1h4QxULYfLVLRuHkIJ-35" value="Registrar Cuenta" style="ellipse;whiteSpace=wrap;html=1;" parent="1" vertex="1">
          <mxGeometry x="-155" y="130" width="120" height="60" as="geometry" />
        </mxCell>
        <mxCell id="uDYenzzOM_alLlbksWme-7" style="edgeStyle=orthogonalEdgeStyle;rounded=0;orthogonalLoop=1;jettySize=auto;html=1;entryX=0.5;entryY=0;entryDx=0;entryDy=0;" parent="1" source="8Nh4FNoyNVWKhMdbQ_Sm-1" target="ps1h4QxULYfLVLRuHkIJ-35" edge="1">
          <mxGeometry relative="1" as="geometry" />
        </mxCell>
        <mxCell id="8Nh4FNoyNVWKhMdbQ_Sm-1" value="Llenar Formulario" style="ellipse;whiteSpace=wrap;html=1;" parent="1" vertex="1">
          <mxGeometry x="-155" y="30" width="120" height="60" as="geometry" />
        </mxCell>
        <mxCell id="8Nh4FNoyNVWKhMdbQ_Sm-7" value="&lt;div&gt;Dep de planificacion y&amp;nbsp;&lt;/div&gt;&lt;div&gt;admin de recursos humanos&lt;/div&gt;" style="shape=umlActor;verticalLabelPosition=bottom;verticalAlign=top;html=1;outlineConnect=0;" parent="1" vertex="1">
          <mxGeometry x="-500" y="180" width="30" height="60" as="geometry" />
        </mxCell>
        <mxCell id="oNdfcSfOL_IFBwVw255J-3" value="&lt;h1&gt;&lt;span&gt;Registro Reclutador y Empresa&lt;/span&gt;&lt;/h1&gt;&lt;h1&gt;&lt;br&gt;&lt;/h1&gt;&lt;div&gt;Las cuentas deberan llenar un formulario en la pagina de login, para proporcionar informacion veridica, luego&amp;nbsp; de ser aceptados se le debe enviar un mensaje al correo con las credenciales&amp;nbsp;&lt;/div&gt;" style="text;html=1;strokeColor=none;fillColor=none;spacing=5;spacingTop=-20;whiteSpace=wrap;overflow=hidden;rounded=0;" parent="1" vertex="1">
          <mxGeometry x="-370" y="500" width="430" height="140" as="geometry" />
        </mxCell>
        <mxCell id="uDYenzzOM_alLlbksWme-3" value="Sistema Egresados" style="text;html=1;align=center;verticalAlign=middle;resizable=0;points=[];autosize=1;strokeColor=none;fillColor=none;" parent="1" vertex="1">
          <mxGeometry x="-155" y="-140" width="120" height="20" as="geometry" />
        </mxCell>
        <mxCell id="uDYenzzOM_alLlbksWme-10" style="edgeStyle=orthogonalEdgeStyle;rounded=0;orthogonalLoop=1;jettySize=auto;html=1;" parent="1" source="uDYenzzOM_alLlbksWme-6" target="8Nh4FNoyNVWKhMdbQ_Sm-7" edge="1">
          <mxGeometry relative="1" as="geometry" />
        </mxCell>
        <mxCell id="uDYenzzOM_alLlbksWme-6" value="Otorgar cuenta" style="ellipse;whiteSpace=wrap;html=1;" parent="1" vertex="1">
          <mxGeometry x="-320" y="230" width="120" height="60" as="geometry" />
        </mxCell>
      </root>
    </mxGraphModel>
  </diagram>
  <diagram id="KSTuxLjoC1pnTMIIDo7a" name="Modulo Login">
    <mxGraphModel dx="2272" dy="1907" grid="1" gridSize="10" guides="1" tooltips="1" connect="1" arrows="1" fold="1" page="1" pageScale="1" pageWidth="850" pageHeight="1100" math="0" shadow="0">
      <root>
        <mxCell id="0" />
        <mxCell id="1" parent="0" />
        <mxCell id="qNKk7F3KA5EgLBLG4CWT-1" value="&lt;h1&gt;Inicio de sesion&lt;/h1&gt;&lt;h1&gt;&lt;br&gt;&lt;/h1&gt;&lt;div&gt;El egresado debe ser validado mediante la base de datos de la universidad y el resto de usuarios utilizando la base de datos del sistema&lt;/div&gt;&lt;div&gt;&lt;br&gt;&lt;/div&gt;" style="text;html=1;strokeColor=none;fillColor=none;spacing=5;spacingTop=-20;whiteSpace=wrap;overflow=hidden;rounded=0;" parent="1" vertex="1">
          <mxGeometry x="210" y="550" width="340" height="170" as="geometry" />
        </mxCell>
        <mxCell id="r0vkeqC2_D9JqhM1JqS9-1" value="" style="whiteSpace=wrap;html=1;aspect=fixed;" parent="1" vertex="1">
          <mxGeometry x="110" y="-10" width="510" height="510" as="geometry" />
        </mxCell>
        <mxCell id="r0vkeqC2_D9JqhM1JqS9-17" style="edgeStyle=orthogonalEdgeStyle;rounded=0;orthogonalLoop=1;jettySize=auto;html=1;entryX=0.5;entryY=0;entryDx=0;entryDy=0;" parent="1" source="r0vkeqC2_D9JqhM1JqS9-3" target="r0vkeqC2_D9JqhM1JqS9-22" edge="1">
          <mxGeometry relative="1" as="geometry" />
        </mxCell>
        <mxCell id="r0vkeqC2_D9JqhM1JqS9-27" style="edgeStyle=orthogonalEdgeStyle;rounded=0;orthogonalLoop=1;jettySize=auto;html=1;exitX=1;exitY=0.3333333333333333;exitDx=0;exitDy=0;exitPerimeter=0;entryX=0;entryY=0.5;entryDx=0;entryDy=0;" parent="1" source="r0vkeqC2_D9JqhM1JqS9-3" target="r0vkeqC2_D9JqhM1JqS9-25" edge="1">
          <mxGeometry relative="1" as="geometry" />
        </mxCell>
        <mxCell id="r0vkeqC2_D9JqhM1JqS9-3" value="Egresado" style="shape=umlActor;verticalLabelPosition=bottom;verticalAlign=top;html=1;outlineConnect=0;" parent="1" vertex="1">
          <mxGeometry x="-40" y="10" width="30" height="60" as="geometry" />
        </mxCell>
        <mxCell id="r0vkeqC2_D9JqhM1JqS9-18" style="edgeStyle=orthogonalEdgeStyle;rounded=0;orthogonalLoop=1;jettySize=auto;html=1;" parent="1" source="r0vkeqC2_D9JqhM1JqS9-5" target="r0vkeqC2_D9JqhM1JqS9-22" edge="1">
          <mxGeometry relative="1" as="geometry" />
        </mxCell>
        <mxCell id="r0vkeqC2_D9JqhM1JqS9-28" style="edgeStyle=orthogonalEdgeStyle;rounded=0;orthogonalLoop=1;jettySize=auto;html=1;entryX=0;entryY=0;entryDx=0;entryDy=0;" parent="1" source="r0vkeqC2_D9JqhM1JqS9-5" target="r0vkeqC2_D9JqhM1JqS9-25" edge="1">
          <mxGeometry relative="1" as="geometry">
            <Array as="points">
              <mxPoint x="160" y="160" />
              <mxPoint x="160" y="359" />
            </Array>
          </mxGeometry>
        </mxCell>
        <mxCell id="r0vkeqC2_D9JqhM1JqS9-5" value="Reclutador y recursos humanos" style="shape=umlActor;verticalLabelPosition=bottom;verticalAlign=top;html=1;outlineConnect=0;" parent="1" vertex="1">
          <mxGeometry x="-40" y="130" width="30" height="60" as="geometry" />
        </mxCell>
        <mxCell id="r0vkeqC2_D9JqhM1JqS9-21" style="edgeStyle=orthogonalEdgeStyle;rounded=0;orthogonalLoop=1;jettySize=auto;html=1;" parent="1" source="r0vkeqC2_D9JqhM1JqS9-8" target="r0vkeqC2_D9JqhM1JqS9-19" edge="1">
          <mxGeometry relative="1" as="geometry" />
        </mxCell>
        <mxCell id="r0vkeqC2_D9JqhM1JqS9-8" value="sistema" style="shape=umlActor;verticalLabelPosition=bottom;verticalAlign=top;html=1;outlineConnect=0;" parent="1" vertex="1">
          <mxGeometry x="670" y="250" width="30" height="60" as="geometry" />
        </mxCell>
        <mxCell id="r0vkeqC2_D9JqhM1JqS9-20" style="edgeStyle=orthogonalEdgeStyle;rounded=0;orthogonalLoop=1;jettySize=auto;html=1;" parent="1" source="r0vkeqC2_D9JqhM1JqS9-9" target="r0vkeqC2_D9JqhM1JqS9-19" edge="1">
          <mxGeometry relative="1" as="geometry" />
        </mxCell>
        <mxCell id="r0vkeqC2_D9JqhM1JqS9-9" value="Iniciar Sesion" style="ellipse;whiteSpace=wrap;html=1;" parent="1" vertex="1">
          <mxGeometry x="260" y="250" width="120" height="60" as="geometry" />
        </mxCell>
        <mxCell id="r0vkeqC2_D9JqhM1JqS9-26" style="edgeStyle=orthogonalEdgeStyle;rounded=0;orthogonalLoop=1;jettySize=auto;html=1;entryX=0;entryY=0.5;entryDx=0;entryDy=0;" parent="1" source="r0vkeqC2_D9JqhM1JqS9-12" target="r0vkeqC2_D9JqhM1JqS9-22" edge="1">
          <mxGeometry relative="1" as="geometry" />
        </mxCell>
        <mxCell id="r0vkeqC2_D9JqhM1JqS9-12" value="&lt;div&gt;Dep de planificacion y&amp;nbsp;&lt;/div&gt;&lt;div&gt;admin de recursos humanos&lt;/div&gt;" style="shape=umlActor;verticalLabelPosition=bottom;verticalAlign=top;html=1;outlineConnect=0;" parent="1" vertex="1">
          <mxGeometry x="-40" y="280" width="30" height="60" as="geometry" />
        </mxCell>
        <mxCell id="r0vkeqC2_D9JqhM1JqS9-13" value="Sistema Egresados" style="text;html=1;align=center;verticalAlign=middle;resizable=0;points=[];autosize=1;strokeColor=none;fillColor=none;" parent="1" vertex="1">
          <mxGeometry x="305" y="-40" width="120" height="20" as="geometry" />
        </mxCell>
        <mxCell id="r0vkeqC2_D9JqhM1JqS9-19" value="Validar" style="ellipse;whiteSpace=wrap;html=1;" parent="1" vertex="1">
          <mxGeometry x="440" y="250" width="120" height="60" as="geometry" />
        </mxCell>
        <mxCell id="r0vkeqC2_D9JqhM1JqS9-23" style="edgeStyle=orthogonalEdgeStyle;rounded=0;orthogonalLoop=1;jettySize=auto;html=1;entryX=0.5;entryY=0;entryDx=0;entryDy=0;" parent="1" source="r0vkeqC2_D9JqhM1JqS9-22" target="r0vkeqC2_D9JqhM1JqS9-9" edge="1">
          <mxGeometry relative="1" as="geometry" />
        </mxCell>
        <mxCell id="r0vkeqC2_D9JqhM1JqS9-22" value="Llenar formulario" style="ellipse;whiteSpace=wrap;html=1;" parent="1" vertex="1">
          <mxGeometry x="260" y="130" width="120" height="60" as="geometry" />
        </mxCell>
        <mxCell id="r0vkeqC2_D9JqhM1JqS9-25" value="Recuperar Contraseña" style="ellipse;whiteSpace=wrap;html=1;" parent="1" vertex="1">
          <mxGeometry x="260" y="350" width="120" height="60" as="geometry" />
        </mxCell>
      </root>
    </mxGraphModel>
  </diagram>
  <diagram id="x-4EmDk2QZcQmwv1ljyd" name="Modulo Egresado">
    <mxGraphModel dx="1778" dy="2109" grid="1" gridSize="10" guides="1" tooltips="1" connect="1" arrows="1" fold="1" page="1" pageScale="1" pageWidth="850" pageHeight="1100" math="0" shadow="0">
      <root>
        <mxCell id="0" />
        <mxCell id="1" parent="0" />
        <mxCell id="Z1ALo9aRsaNJIrldC5EL-55" style="edgeStyle=orthogonalEdgeStyle;rounded=0;orthogonalLoop=1;jettySize=auto;html=1;entryX=0;entryY=0.5;entryDx=0;entryDy=0;" parent="1" source="Z1ALo9aRsaNJIrldC5EL-1" target="Z1ALo9aRsaNJIrldC5EL-3" edge="1">
          <mxGeometry relative="1" as="geometry" />
        </mxCell>
        <mxCell id="Z1ALo9aRsaNJIrldC5EL-1" value="Egresado" style="shape=umlActor;verticalLabelPosition=bottom;verticalAlign=top;html=1;outlineConnect=0;" parent="1" vertex="1">
          <mxGeometry x="160" y="270" width="30" height="60" as="geometry" />
        </mxCell>
        <mxCell id="Z1ALo9aRsaNJIrldC5EL-12" style="edgeStyle=orthogonalEdgeStyle;rounded=0;orthogonalLoop=1;jettySize=auto;html=1;exitX=0.5;exitY=0;exitDx=0;exitDy=0;entryX=0;entryY=0.5;entryDx=0;entryDy=0;" parent="1" source="Z1ALo9aRsaNJIrldC5EL-3" target="Z1ALo9aRsaNJIrldC5EL-5" edge="1">
          <mxGeometry relative="1" as="geometry" />
        </mxCell>
        <mxCell id="Z1ALo9aRsaNJIrldC5EL-13" style="edgeStyle=orthogonalEdgeStyle;rounded=0;orthogonalLoop=1;jettySize=auto;html=1;exitX=1;exitY=0.5;exitDx=0;exitDy=0;" parent="1" source="Z1ALo9aRsaNJIrldC5EL-3" target="Z1ALo9aRsaNJIrldC5EL-6" edge="1">
          <mxGeometry relative="1" as="geometry" />
        </mxCell>
        <mxCell id="Z1ALo9aRsaNJIrldC5EL-56" style="edgeStyle=orthogonalEdgeStyle;rounded=0;orthogonalLoop=1;jettySize=auto;html=1;exitX=0.5;exitY=1;exitDx=0;exitDy=0;entryX=0;entryY=0.5;entryDx=0;entryDy=0;" parent="1" source="Z1ALo9aRsaNJIrldC5EL-3" target="Z1ALo9aRsaNJIrldC5EL-7" edge="1">
          <mxGeometry relative="1" as="geometry" />
        </mxCell>
        <mxCell id="-qiXybSb5qSjjH_kc9IB-25" style="edgeStyle=orthogonalEdgeStyle;rounded=0;orthogonalLoop=1;jettySize=auto;html=1;entryX=0;entryY=0.5;entryDx=0;entryDy=0;" edge="1" parent="1" source="Z1ALo9aRsaNJIrldC5EL-3" target="Z1ALo9aRsaNJIrldC5EL-57">
          <mxGeometry relative="1" as="geometry">
            <Array as="points">
              <mxPoint x="370" y="635" />
            </Array>
          </mxGeometry>
        </mxCell>
        <mxCell id="Z1ALo9aRsaNJIrldC5EL-3" value="Administrar" style="ellipse;whiteSpace=wrap;html=1;" parent="1" vertex="1">
          <mxGeometry x="300" y="200" width="140" height="50" as="geometry" />
        </mxCell>
        <mxCell id="Z1ALo9aRsaNJIrldC5EL-30" style="edgeStyle=orthogonalEdgeStyle;rounded=0;orthogonalLoop=1;jettySize=auto;html=1;exitX=0.5;exitY=0;exitDx=0;exitDy=0;entryX=0;entryY=0.5;entryDx=0;entryDy=0;" parent="1" source="Z1ALo9aRsaNJIrldC5EL-5" target="Z1ALo9aRsaNJIrldC5EL-26" edge="1">
          <mxGeometry relative="1" as="geometry" />
        </mxCell>
        <mxCell id="Z1ALo9aRsaNJIrldC5EL-32" style="edgeStyle=orthogonalEdgeStyle;rounded=0;orthogonalLoop=1;jettySize=auto;html=1;entryX=0;entryY=0.5;entryDx=0;entryDy=0;exitX=0.5;exitY=1;exitDx=0;exitDy=0;" parent="1" source="Z1ALo9aRsaNJIrldC5EL-5" target="Z1ALo9aRsaNJIrldC5EL-27" edge="1">
          <mxGeometry relative="1" as="geometry" />
        </mxCell>
        <mxCell id="-qiXybSb5qSjjH_kc9IB-16" style="edgeStyle=orthogonalEdgeStyle;rounded=0;orthogonalLoop=1;jettySize=auto;html=1;" edge="1" parent="1" source="Z1ALo9aRsaNJIrldC5EL-5" target="-qiXybSb5qSjjH_kc9IB-15">
          <mxGeometry relative="1" as="geometry" />
        </mxCell>
        <mxCell id="Z1ALo9aRsaNJIrldC5EL-5" value="Pefil" style="ellipse;whiteSpace=wrap;html=1;" parent="1" vertex="1">
          <mxGeometry x="510" y="-130" width="140" height="50" as="geometry" />
        </mxCell>
        <mxCell id="Z1ALo9aRsaNJIrldC5EL-39" style="edgeStyle=orthogonalEdgeStyle;rounded=0;orthogonalLoop=1;jettySize=auto;html=1;entryX=0;entryY=0.5;entryDx=0;entryDy=0;" parent="1" source="Z1ALo9aRsaNJIrldC5EL-6" target="Z1ALo9aRsaNJIrldC5EL-36" edge="1">
          <mxGeometry relative="1" as="geometry" />
        </mxCell>
        <mxCell id="-qiXybSb5qSjjH_kc9IB-13" style="edgeStyle=orthogonalEdgeStyle;rounded=0;orthogonalLoop=1;jettySize=auto;html=1;entryX=0;entryY=0.5;entryDx=0;entryDy=0;" edge="1" parent="1" source="Z1ALo9aRsaNJIrldC5EL-6" target="-qiXybSb5qSjjH_kc9IB-12">
          <mxGeometry relative="1" as="geometry" />
        </mxCell>
        <mxCell id="-qiXybSb5qSjjH_kc9IB-14" style="edgeStyle=orthogonalEdgeStyle;rounded=0;orthogonalLoop=1;jettySize=auto;html=1;entryX=0;entryY=0.5;entryDx=0;entryDy=0;" edge="1" parent="1" source="Z1ALo9aRsaNJIrldC5EL-6" target="Z1ALo9aRsaNJIrldC5EL-35">
          <mxGeometry relative="1" as="geometry" />
        </mxCell>
        <mxCell id="Z1ALo9aRsaNJIrldC5EL-6" value="Post" style="ellipse;whiteSpace=wrap;html=1;" parent="1" vertex="1">
          <mxGeometry x="490" y="200" width="140" height="50" as="geometry" />
        </mxCell>
        <mxCell id="-qiXybSb5qSjjH_kc9IB-8" style="edgeStyle=orthogonalEdgeStyle;rounded=0;orthogonalLoop=1;jettySize=auto;html=1;entryX=0;entryY=0.5;entryDx=0;entryDy=0;" edge="1" parent="1" source="Z1ALo9aRsaNJIrldC5EL-7" target="Z1ALo9aRsaNJIrldC5EL-40">
          <mxGeometry relative="1" as="geometry" />
        </mxCell>
        <mxCell id="-qiXybSb5qSjjH_kc9IB-9" style="edgeStyle=orthogonalEdgeStyle;rounded=0;orthogonalLoop=1;jettySize=auto;html=1;entryX=0;entryY=0.5;entryDx=0;entryDy=0;" edge="1" parent="1" source="Z1ALo9aRsaNJIrldC5EL-7" target="-qiXybSb5qSjjH_kc9IB-7">
          <mxGeometry relative="1" as="geometry" />
        </mxCell>
        <mxCell id="-qiXybSb5qSjjH_kc9IB-10" style="edgeStyle=orthogonalEdgeStyle;rounded=0;orthogonalLoop=1;jettySize=auto;html=1;entryX=0;entryY=0.5;entryDx=0;entryDy=0;" edge="1" parent="1" source="Z1ALo9aRsaNJIrldC5EL-7" target="Z1ALo9aRsaNJIrldC5EL-41">
          <mxGeometry relative="1" as="geometry" />
        </mxCell>
        <mxCell id="-qiXybSb5qSjjH_kc9IB-26" style="edgeStyle=orthogonalEdgeStyle;rounded=0;orthogonalLoop=1;jettySize=auto;html=1;exitX=1;exitY=0.5;exitDx=0;exitDy=0;entryX=0;entryY=0.5;entryDx=0;entryDy=0;" edge="1" parent="1" source="Z1ALo9aRsaNJIrldC5EL-7" target="Z1ALo9aRsaNJIrldC5EL-21">
          <mxGeometry relative="1" as="geometry" />
        </mxCell>
        <mxCell id="Z1ALo9aRsaNJIrldC5EL-7" value="Amigos" style="ellipse;whiteSpace=wrap;html=1;" parent="1" vertex="1">
          <mxGeometry x="510" y="400" width="140" height="50" as="geometry" />
        </mxCell>
        <mxCell id="Z1ALo9aRsaNJIrldC5EL-21" value="Enviar Mensaje" style="ellipse;whiteSpace=wrap;html=1;" parent="1" vertex="1">
          <mxGeometry x="704.5" y="580" width="140" height="50" as="geometry" />
        </mxCell>
        <mxCell id="Z1ALo9aRsaNJIrldC5EL-26" value="Cambiar datos" style="ellipse;whiteSpace=wrap;html=1;" parent="1" vertex="1">
          <mxGeometry x="710" y="-230" width="140" height="50" as="geometry" />
        </mxCell>
        <mxCell id="Z1ALo9aRsaNJIrldC5EL-27" value="Cambiar Contraseña" style="ellipse;whiteSpace=wrap;html=1;" parent="1" vertex="1">
          <mxGeometry x="710" y="-40" width="140" height="50" as="geometry" />
        </mxCell>
        <mxCell id="Z1ALo9aRsaNJIrldC5EL-35" value="Eliminar" style="ellipse;whiteSpace=wrap;html=1;" parent="1" vertex="1">
          <mxGeometry x="710" y="200" width="140" height="50" as="geometry" />
        </mxCell>
        <mxCell id="Z1ALo9aRsaNJIrldC5EL-36" value="Editar" style="ellipse;whiteSpace=wrap;html=1;" parent="1" vertex="1">
          <mxGeometry x="710" y="270" width="140" height="50" as="geometry" />
        </mxCell>
        <mxCell id="Z1ALo9aRsaNJIrldC5EL-40" value="Eliminar" style="ellipse;whiteSpace=wrap;html=1;" parent="1" vertex="1">
          <mxGeometry x="702.5" y="400" width="140" height="50" as="geometry" />
        </mxCell>
        <mxCell id="Z1ALo9aRsaNJIrldC5EL-41" value="Bloquear" style="ellipse;whiteSpace=wrap;html=1;" parent="1" vertex="1">
          <mxGeometry x="703.5" y="490" width="140" height="50" as="geometry" />
        </mxCell>
        <mxCell id="Z1ALo9aRsaNJIrldC5EL-62" style="edgeStyle=orthogonalEdgeStyle;rounded=0;orthogonalLoop=1;jettySize=auto;html=1;exitX=1;exitY=0.5;exitDx=0;exitDy=0;entryX=0;entryY=0.5;entryDx=0;entryDy=0;" parent="1" source="Z1ALo9aRsaNJIrldC5EL-57" target="Z1ALo9aRsaNJIrldC5EL-61" edge="1">
          <mxGeometry relative="1" as="geometry" />
        </mxCell>
        <mxCell id="-qiXybSb5qSjjH_kc9IB-18" style="edgeStyle=orthogonalEdgeStyle;rounded=0;orthogonalLoop=1;jettySize=auto;html=1;exitX=1;exitY=0.5;exitDx=0;exitDy=0;entryX=0;entryY=0.5;entryDx=0;entryDy=0;" edge="1" parent="1" source="Z1ALo9aRsaNJIrldC5EL-57" target="-qiXybSb5qSjjH_kc9IB-17">
          <mxGeometry relative="1" as="geometry" />
        </mxCell>
        <mxCell id="Z1ALo9aRsaNJIrldC5EL-57" value="Lista Evento" style="ellipse;whiteSpace=wrap;html=1;" parent="1" vertex="1">
          <mxGeometry x="510" y="700" width="140" height="50" as="geometry" />
        </mxCell>
        <mxCell id="Z1ALo9aRsaNJIrldC5EL-61" value="Asistir" style="ellipse;whiteSpace=wrap;html=1;" parent="1" vertex="1">
          <mxGeometry x="950" y="660" width="140" height="50" as="geometry" />
        </mxCell>
        <mxCell id="Z1ALo9aRsaNJIrldC5EL-63" value="Dar alta postulacion" style="ellipse;whiteSpace=wrap;html=1;" parent="1" vertex="1">
          <mxGeometry x="860" y="850" width="140" height="50" as="geometry" />
        </mxCell>
        <mxCell id="-qiXybSb5qSjjH_kc9IB-7" value="Agregar" style="ellipse;whiteSpace=wrap;html=1;" vertex="1" parent="1">
          <mxGeometry x="703.5" y="330" width="140" height="50" as="geometry" />
        </mxCell>
        <mxCell id="-qiXybSb5qSjjH_kc9IB-12" value="Crear" style="ellipse;whiteSpace=wrap;html=1;" vertex="1" parent="1">
          <mxGeometry x="710" y="130" width="140" height="50" as="geometry" />
        </mxCell>
        <mxCell id="-qiXybSb5qSjjH_kc9IB-15" value="Recuperar Contraseña" style="ellipse;whiteSpace=wrap;html=1;" vertex="1" parent="1">
          <mxGeometry x="710" y="-130" width="140" height="50" as="geometry" />
        </mxCell>
        <mxCell id="-qiXybSb5qSjjH_kc9IB-17" value="Compartir evento" style="ellipse;whiteSpace=wrap;html=1;" vertex="1" parent="1">
          <mxGeometry x="950" y="760" width="140" height="50" as="geometry" />
        </mxCell>
        <mxCell id="-qiXybSb5qSjjH_kc9IB-24" value="Lista Evento" style="ellipse;whiteSpace=wrap;html=1;" vertex="1" parent="1">
          <mxGeometry x="510" y="810" width="140" height="50" as="geometry" />
        </mxCell>
      </root>
    </mxGraphModel>
  </diagram>
  <diagram id="ZRWDf_Hj6uvGdLw47oIn" name="Modulo Reclutador">
    <mxGraphModel dx="1422" dy="807" grid="1" gridSize="10" guides="1" tooltips="1" connect="1" arrows="1" fold="1" page="1" pageScale="1" pageWidth="850" pageHeight="1100" math="0" shadow="0">
      <root>
        <mxCell id="0" />
        <mxCell id="1" parent="0" />
        <mxCell id="KNQ88nvatJcq0bxtPUWm-1" style="edgeStyle=orthogonalEdgeStyle;rounded=0;orthogonalLoop=1;jettySize=auto;html=1;entryX=0;entryY=0.5;entryDx=0;entryDy=0;" parent="1" source="T1cxmti9wlleSTlFRHnA-1" target="T1cxmti9wlleSTlFRHnA-2" edge="1">
          <mxGeometry relative="1" as="geometry" />
        </mxCell>
        <mxCell id="KNQ88nvatJcq0bxtPUWm-3" style="edgeStyle=orthogonalEdgeStyle;rounded=0;orthogonalLoop=1;jettySize=auto;html=1;entryX=0;entryY=0.5;entryDx=0;entryDy=0;" parent="1" source="T1cxmti9wlleSTlFRHnA-1" target="T1cxmti9wlleSTlFRHnA-5" edge="1">
          <mxGeometry relative="1" as="geometry" />
        </mxCell>
        <mxCell id="KNQ88nvatJcq0bxtPUWm-4" style="edgeStyle=orthogonalEdgeStyle;rounded=0;orthogonalLoop=1;jettySize=auto;html=1;entryX=0;entryY=0.5;entryDx=0;entryDy=0;" parent="1" source="T1cxmti9wlleSTlFRHnA-1" target="ZS393QdUM0ocgv7dwVsJ-1" edge="1">
          <mxGeometry relative="1" as="geometry" />
        </mxCell>
        <mxCell id="T1cxmti9wlleSTlFRHnA-1" value="Reclutador" style="shape=umlActor;verticalLabelPosition=bottom;verticalAlign=top;html=1;outlineConnect=0;" parent="1" vertex="1">
          <mxGeometry x="90" y="180" width="30" height="60" as="geometry" />
        </mxCell>
        <mxCell id="T1cxmti9wlleSTlFRHnA-2" value="Crear plaza trabajo" style="ellipse;whiteSpace=wrap;html=1;" parent="1" vertex="1">
          <mxGeometry x="390" y="20" width="140" height="60" as="geometry" />
        </mxCell>
        <mxCell id="T1cxmti9wlleSTlFRHnA-5" value="Dar alta plaza" style="ellipse;whiteSpace=wrap;html=1;" parent="1" vertex="1">
          <mxGeometry x="390" y="310" width="140" height="60" as="geometry" />
        </mxCell>
        <mxCell id="ZS393QdUM0ocgv7dwVsJ-1" value="Editar plaza trabajo" style="ellipse;whiteSpace=wrap;html=1;" parent="1" vertex="1">
          <mxGeometry x="390" y="180" width="140" height="60" as="geometry" />
        </mxCell>
        <mxCell id="TC-YePVhOE7DEyjzUST8-1" value="&lt;h1&gt;Crud&lt;/h1&gt;&lt;h1&gt;&lt;br&gt;&lt;/h1&gt;&lt;div style=&quot;font-size: 16px&quot;&gt;&lt;p class=&quot;MsoNormal&quot;&gt;&lt;font face=&quot;arial, sans-serif&quot;&gt;El reclutador puede crear, editar y eliminar cualquier plaza de trabajo creada&amp;nbsp;&lt;/font&gt;&lt;/p&gt;&lt;p&gt;&lt;/p&gt;&lt;/div&gt;" style="text;html=1;strokeColor=none;fillColor=none;spacing=5;spacingTop=-20;whiteSpace=wrap;overflow=hidden;rounded=0;" parent="1" vertex="1">
          <mxGeometry x="690" y="60" width="430" height="230" as="geometry" />
        </mxCell>
      </root>
    </mxGraphModel>
  </diagram>
  <diagram id="H5lQR3PPQb9tB3SsD7-E" name="Modulo Empresa (Recursos Humanos)">
    <mxGraphModel dx="1422" dy="807" grid="1" gridSize="10" guides="1" tooltips="1" connect="1" arrows="1" fold="1" page="1" pageScale="1" pageWidth="850" pageHeight="1100" math="0" shadow="0">
      <root>
        <mxCell id="0" />
        <mxCell id="1" parent="0" />
        <mxCell id="38Vq5-p1HVjJcPBfvbfB-7" style="edgeStyle=orthogonalEdgeStyle;rounded=0;orthogonalLoop=1;jettySize=auto;html=1;entryX=0;entryY=0.5;entryDx=0;entryDy=0;" parent="1" source="38Vq5-p1HVjJcPBfvbfB-1" target="38Vq5-p1HVjJcPBfvbfB-2" edge="1">
          <mxGeometry relative="1" as="geometry" />
        </mxCell>
        <mxCell id="38Vq5-p1HVjJcPBfvbfB-1" value="Empresa (recursos humanos)" style="shape=umlActor;verticalLabelPosition=bottom;verticalAlign=top;html=1;outlineConnect=0;" parent="1" vertex="1">
          <mxGeometry x="80" y="270" width="30" height="60" as="geometry" />
        </mxCell>
        <mxCell id="38Vq5-p1HVjJcPBfvbfB-8" style="edgeStyle=orthogonalEdgeStyle;rounded=0;orthogonalLoop=1;jettySize=auto;html=1;" parent="1" source="38Vq5-p1HVjJcPBfvbfB-2" target="38Vq5-p1HVjJcPBfvbfB-4" edge="1">
          <mxGeometry relative="1" as="geometry" />
        </mxCell>
        <mxCell id="38Vq5-p1HVjJcPBfvbfB-2" value="Ver lista egresados" style="ellipse;whiteSpace=wrap;html=1;" parent="1" vertex="1">
          <mxGeometry x="300" y="265" width="180" height="70" as="geometry" />
        </mxCell>
        <mxCell id="38Vq5-p1HVjJcPBfvbfB-5" style="edgeStyle=orthogonalEdgeStyle;rounded=0;orthogonalLoop=1;jettySize=auto;html=1;entryX=1;entryY=0.5;entryDx=0;entryDy=0;" parent="1" source="38Vq5-p1HVjJcPBfvbfB-3" target="38Vq5-p1HVjJcPBfvbfB-4" edge="1">
          <mxGeometry relative="1" as="geometry" />
        </mxCell>
        <mxCell id="38Vq5-p1HVjJcPBfvbfB-3" value="Sistema egresados" style="shape=umlActor;verticalLabelPosition=bottom;verticalAlign=top;html=1;outlineConnect=0;" parent="1" vertex="1">
          <mxGeometry x="1010" y="320" width="30" height="60" as="geometry" />
        </mxCell>
        <mxCell id="38Vq5-p1HVjJcPBfvbfB-13" style="edgeStyle=orthogonalEdgeStyle;rounded=0;orthogonalLoop=1;jettySize=auto;html=1;exitX=0;exitY=1;exitDx=0;exitDy=0;" parent="1" source="38Vq5-p1HVjJcPBfvbfB-4" target="38Vq5-p1HVjJcPBfvbfB-10" edge="1">
          <mxGeometry relative="1" as="geometry" />
        </mxCell>
        <mxCell id="38Vq5-p1HVjJcPBfvbfB-4" value="Filtrar segun identidad empresa" style="ellipse;whiteSpace=wrap;html=1;" parent="1" vertex="1">
          <mxGeometry x="580" y="265" width="200" height="70" as="geometry" />
        </mxCell>
        <mxCell id="38Vq5-p1HVjJcPBfvbfB-16" style="edgeStyle=orthogonalEdgeStyle;rounded=0;orthogonalLoop=1;jettySize=auto;html=1;" parent="1" source="38Vq5-p1HVjJcPBfvbfB-9" target="38Vq5-p1HVjJcPBfvbfB-15" edge="1">
          <mxGeometry relative="1" as="geometry" />
        </mxCell>
        <mxCell id="38Vq5-p1HVjJcPBfvbfB-9" value="Llenar encuesta satisfaccion" style="ellipse;whiteSpace=wrap;html=1;" parent="1" vertex="1">
          <mxGeometry x="520" y="540" width="180" height="70" as="geometry" />
        </mxCell>
        <mxCell id="38Vq5-p1HVjJcPBfvbfB-14" style="edgeStyle=orthogonalEdgeStyle;rounded=0;orthogonalLoop=1;jettySize=auto;html=1;" parent="1" source="38Vq5-p1HVjJcPBfvbfB-10" target="38Vq5-p1HVjJcPBfvbfB-9" edge="1">
          <mxGeometry relative="1" as="geometry" />
        </mxCell>
        <mxCell id="38Vq5-p1HVjJcPBfvbfB-10" value="Seleccionar egresado" style="ellipse;whiteSpace=wrap;html=1;" parent="1" vertex="1">
          <mxGeometry x="520" y="400" width="180" height="70" as="geometry" />
        </mxCell>
        <mxCell id="38Vq5-p1HVjJcPBfvbfB-17" style="edgeStyle=orthogonalEdgeStyle;rounded=0;orthogonalLoop=1;jettySize=auto;html=1;" parent="1" source="38Vq5-p1HVjJcPBfvbfB-15" target="38Vq5-p1HVjJcPBfvbfB-3" edge="1">
          <mxGeometry relative="1" as="geometry" />
        </mxCell>
        <mxCell id="38Vq5-p1HVjJcPBfvbfB-15" value="Enviar respuesta" style="ellipse;whiteSpace=wrap;html=1;" parent="1" vertex="1">
          <mxGeometry x="750" y="540" width="180" height="70" as="geometry" />
        </mxCell>
        <mxCell id="mDs2iBoC97aGGydf2UZC-1" value="&lt;h1&gt;Empresa&lt;/h1&gt;&lt;h1&gt;&lt;br&gt;&lt;/h1&gt;&lt;div style=&quot;font-size: 16px&quot;&gt;&lt;p class=&quot;MsoNormal&quot;&gt;El representante de la empresa tendra acceso a la lista de egresados segun el id de la empresa con el que dicho representante este relacionado, podra seleccionar de la lista a cualquier egresado y llenar una encuesta de satisfacciono&amp;nbsp;&lt;/p&gt;&lt;p&gt;&lt;/p&gt;&lt;/div&gt;" style="text;html=1;strokeColor=none;fillColor=none;spacing=5;spacingTop=-20;whiteSpace=wrap;overflow=hidden;rounded=0;" parent="1" vertex="1">
          <mxGeometry x="100" y="620" width="430" height="230" as="geometry" />
        </mxCell>
      </root>
    </mxGraphModel>
  </diagram>
  <diagram id="jfAmvf6OFEC4bzsVT70f" name="Modulo depártamento de planificacion y administracion de recursos humanos">
    <mxGraphModel dx="2272" dy="807" grid="1" gridSize="10" guides="1" tooltips="1" connect="1" arrows="1" fold="1" page="1" pageScale="1" pageWidth="850" pageHeight="1100" math="0" shadow="0">
      <root>
        <mxCell id="0" />
        <mxCell id="1" parent="0" />
        <mxCell id="AdZctK4t-bl0yCTUU0jm-1" style="edgeStyle=orthogonalEdgeStyle;rounded=0;orthogonalLoop=1;jettySize=auto;html=1;entryX=0;entryY=0.5;entryDx=0;entryDy=0;" parent="1" source="AdZctK4t-bl0yCTUU0jm-2" target="AdZctK4t-bl0yCTUU0jm-8" edge="1">
          <mxGeometry relative="1" as="geometry" />
        </mxCell>
        <mxCell id="olmYnxrndk-SHE_A5IUz-3" style="edgeStyle=orthogonalEdgeStyle;rounded=0;orthogonalLoop=1;jettySize=auto;html=1;exitX=1;exitY=1;exitDx=0;exitDy=0;exitPerimeter=0;entryX=0;entryY=0.5;entryDx=0;entryDy=0;" parent="1" source="AdZctK4t-bl0yCTUU0jm-2" target="olmYnxrndk-SHE_A5IUz-2" edge="1">
          <mxGeometry relative="1" as="geometry" />
        </mxCell>
        <mxCell id="AdZctK4t-bl0yCTUU0jm-2" value="Depártamento de planificacion y &lt;br&gt;administracion de recursos humanos" style="shape=umlActor;verticalLabelPosition=bottom;verticalAlign=top;html=1;outlineConnect=0;" parent="1" vertex="1">
          <mxGeometry x="-80" y="290" width="30" height="60" as="geometry" />
        </mxCell>
        <mxCell id="AdZctK4t-bl0yCTUU0jm-3" value="Crear evento" style="ellipse;whiteSpace=wrap;html=1;" parent="1" vertex="1">
          <mxGeometry x="260" y="130" width="140" height="60" as="geometry" />
        </mxCell>
        <mxCell id="AdZctK4t-bl0yCTUU0jm-4" style="edgeStyle=orthogonalEdgeStyle;rounded=0;orthogonalLoop=1;jettySize=auto;html=1;entryX=0;entryY=0.5;entryDx=0;entryDy=0;" parent="1" source="AdZctK4t-bl0yCTUU0jm-8" target="AdZctK4t-bl0yCTUU0jm-3" edge="1">
          <mxGeometry relative="1" as="geometry">
            <mxPoint x="140" y="180" as="targetPoint" />
          </mxGeometry>
        </mxCell>
        <mxCell id="AdZctK4t-bl0yCTUU0jm-6" style="edgeStyle=orthogonalEdgeStyle;rounded=0;orthogonalLoop=1;jettySize=auto;html=1;entryX=0;entryY=0.5;entryDx=0;entryDy=0;" parent="1" source="AdZctK4t-bl0yCTUU0jm-8" target="AdZctK4t-bl0yCTUU0jm-10" edge="1">
          <mxGeometry relative="1" as="geometry" />
        </mxCell>
        <mxCell id="AdZctK4t-bl0yCTUU0jm-7" style="edgeStyle=orthogonalEdgeStyle;rounded=0;orthogonalLoop=1;jettySize=auto;html=1;exitX=1;exitY=0;exitDx=0;exitDy=0;entryX=0;entryY=0.5;entryDx=0;entryDy=0;" parent="1" source="AdZctK4t-bl0yCTUU0jm-8" target="AdZctK4t-bl0yCTUU0jm-25" edge="1">
          <mxGeometry relative="1" as="geometry" />
        </mxCell>
        <mxCell id="olmYnxrndk-SHE_A5IUz-13" style="edgeStyle=orthogonalEdgeStyle;rounded=0;orthogonalLoop=1;jettySize=auto;html=1;entryX=0;entryY=0.5;entryDx=0;entryDy=0;" parent="1" source="AdZctK4t-bl0yCTUU0jm-8" target="AdZctK4t-bl0yCTUU0jm-12" edge="1">
          <mxGeometry relative="1" as="geometry" />
        </mxCell>
        <mxCell id="AdZctK4t-bl0yCTUU0jm-8" value="Administra evento" style="ellipse;whiteSpace=wrap;html=1;" parent="1" vertex="1">
          <mxGeometry x="70" y="290" width="140" height="60" as="geometry" />
        </mxCell>
        <mxCell id="AdZctK4t-bl0yCTUU0jm-10" value="Dar alta evento" style="ellipse;whiteSpace=wrap;html=1;" parent="1" vertex="1">
          <mxGeometry x="260" y="290" width="140" height="60" as="geometry" />
        </mxCell>
        <mxCell id="AdZctK4t-bl0yCTUU0jm-12" value="Consultar participantes" style="ellipse;whiteSpace=wrap;html=1;" parent="1" vertex="1">
          <mxGeometry x="260" y="370" width="140" height="60" as="geometry" />
        </mxCell>
        <mxCell id="AdZctK4t-bl0yCTUU0jm-25" value="Editar evento" style="ellipse;whiteSpace=wrap;html=1;" parent="1" vertex="1">
          <mxGeometry x="260" y="210" width="140" height="60" as="geometry" />
        </mxCell>
        <mxCell id="olmYnxrndk-SHE_A5IUz-7" style="edgeStyle=orthogonalEdgeStyle;rounded=0;orthogonalLoop=1;jettySize=auto;html=1;entryX=0;entryY=0.5;entryDx=0;entryDy=0;" parent="1" source="olmYnxrndk-SHE_A5IUz-2" target="olmYnxrndk-SHE_A5IUz-4" edge="1">
          <mxGeometry relative="1" as="geometry" />
        </mxCell>
        <mxCell id="olmYnxrndk-SHE_A5IUz-8" style="edgeStyle=orthogonalEdgeStyle;rounded=0;orthogonalLoop=1;jettySize=auto;html=1;entryX=0;entryY=0.5;entryDx=0;entryDy=0;" parent="1" source="olmYnxrndk-SHE_A5IUz-2" target="olmYnxrndk-SHE_A5IUz-6" edge="1">
          <mxGeometry relative="1" as="geometry" />
        </mxCell>
        <mxCell id="olmYnxrndk-SHE_A5IUz-9" style="edgeStyle=orthogonalEdgeStyle;rounded=0;orthogonalLoop=1;jettySize=auto;html=1;entryX=0;entryY=0.5;entryDx=0;entryDy=0;" parent="1" source="olmYnxrndk-SHE_A5IUz-2" target="olmYnxrndk-SHE_A5IUz-5" edge="1">
          <mxGeometry relative="1" as="geometry" />
        </mxCell>
        <mxCell id="olmYnxrndk-SHE_A5IUz-2" value="Administra noticia" style="ellipse;whiteSpace=wrap;html=1;" parent="1" vertex="1">
          <mxGeometry x="70" y="700" width="140" height="60" as="geometry" />
        </mxCell>
        <mxCell id="olmYnxrndk-SHE_A5IUz-4" value="Crear noticia" style="ellipse;whiteSpace=wrap;html=1;" parent="1" vertex="1">
          <mxGeometry x="250" y="620" width="140" height="60" as="geometry" />
        </mxCell>
        <mxCell id="olmYnxrndk-SHE_A5IUz-5" value="Editar noticia" style="ellipse;whiteSpace=wrap;html=1;" parent="1" vertex="1">
          <mxGeometry x="250" y="700" width="140" height="60" as="geometry" />
        </mxCell>
        <mxCell id="olmYnxrndk-SHE_A5IUz-6" value="Dar alta noticia" style="ellipse;whiteSpace=wrap;html=1;" parent="1" vertex="1">
          <mxGeometry x="250" y="780" width="140" height="60" as="geometry" />
        </mxCell>
        <mxCell id="ra4dehG9b1Cyigs3LPEJ-1" value="&lt;h1&gt;Crud&lt;/h1&gt;&lt;h1&gt;&lt;br&gt;&lt;/h1&gt;&lt;div style=&quot;font-size: 16px&quot;&gt;&lt;p class=&quot;MsoNormal&quot;&gt;&lt;font face=&quot;arial, sans-serif&quot;&gt;El departamento debera realizar los cruds de eventos y noticias segun la necesidad de la universidad&amp;nbsp;&lt;/font&gt;&lt;/p&gt;&lt;p&gt;&lt;/p&gt;&lt;/div&gt;" style="text;html=1;strokeColor=none;fillColor=none;spacing=5;spacingTop=-20;whiteSpace=wrap;overflow=hidden;rounded=0;" parent="1" vertex="1">
          <mxGeometry x="840" y="470" width="430" height="230" as="geometry" />
        </mxCell>
      </root>
    </mxGraphModel>
  </diagram>
</mxfile>
